<svg xmlns="http://www.w3.org/2000/svg" xmlns:xlink="http://www.w3.org/1999/xlink" viewBox="0 0 529.2 132.3"><defs><linearGradient id="d"><stop offset="0" stop-color="#ff8200"/><stop offset="1" stop-color="#ffdc00"/></linearGradient><linearGradient xlink:href="#a" id="f" x1="8.4" x2="-41" y1="660.4" y2="535.2" gradientTransform="translate(0 -.5)" gradientUnits="userSpaceOnUse"/><linearGradient id="a"><stop offset="0" stop-color="#a05500" stop-opacity=".4"/><stop offset="1" stop-color="#fcff00" stop-opacity="0"/></linearGradient><linearGradient xlink:href="#b" id="g" x1="2047" x2="2219" y1="1900" y2="2252" gradientTransform="matrix(.265 0 0 .265 -674.7 -24.2)" gradientUnits="userSpaceOnUse"/><linearGradient id="b"><stop offset="0" stop-color="#fff"/><stop offset="1" stop-color="#fff" stop-opacity="0"/></linearGradient><linearGradient xlink:href="#c" id="h" x1="-168.5" x2="-91" y1="160.3" y2="305.2" gradientUnits="userSpaceOnUse"/><linearGradient id="c"><stop offset="0" stop-color="#8c0000"/><stop offset="1" stop-color="#640000"/></linearGradient><linearGradient xlink:href="#b" id="i" x1="-255.4" x2="-139.9" y1="427" y2="445.9" gradientTransform="matrix(.708 0 0 .708 -65.4 126.1)" gradientUnits="userSpaceOnUse"/><radialGradient xlink:href="#d" id="e" cx="11.2" cy="797.8" r="131" fx="11.2" fy="797.8" gradientTransform="matrix(.136 -.99 1.674 .23 -1306.3 472.4)" gradientUnits="userSpaceOnUse"/></defs><g transform="matrix(.553 0 0 .553 103.2 -245.7)"><path fill-opacity=".1" d="M-165.4 573.4c18.5-91.9 61.8-107.8 143-71.8C79.9 549 166 627.6 3.6 668.2c-106.1 23.6-187.4 12.6-168.9-94.8z"/><path fill="url(#e)" d="M-173.3 561.3c18.5-92 61.8-107.9 143-71.8C72 536.8 158 615.5-4.5 656c-106 23.5-187.3 12.6-168.8-94.8z"/><path fill="url(#f)" d="M47.4 548.5c33.5 34.6 30.8 71.3-61.2 94.2-61 13.5-112.7 14.3-137.5-12.4a78.2 127.7 75.1 0 0-1.9 16.9c29.4 24.7 84.5 23.1 148.7 8.9 93.4-23.3 104.7-59.3 78-94.6a78.2 127.7 75.1 0 0-26.1-13z"/><path fill="url(#g)" d="M-97.1 471.6c-39.6-.2-63.7 27.1-76.3 89.6a132 132 0 0 0-.3 50.7 73.6 120.1 69 0 0 13 4.3c-6.6-14.3-8.3-33.3-4-58.2 11.2-55.8 32.7-80.3 68.1-80 16.7 0 36.5 5.6 59.7 15.9A382.2 382.2 0 0 1 20.3 526a73.6 120.1 69 0 0 1.5-8.6 456.9 456.9 0 0 0-52.1-28c-26-11.6-48.2-17.8-66.8-18Z"/><ellipse cx="-345.5" cy="364.5" fill="#fff" fill-opacity=".8" rx="18.3" ry="2.6" transform="rotate(-29)"/><ellipse cx="-43.6" cy="489.2" fill="#fff" fill-opacity=".6" rx="11.9" ry="2.9" transform="rotate(5.1)"/><ellipse cx="-592.9" cy="-124.8" fill="#fff" fill-opacity=".6" rx="19.3" ry="4.8" transform="rotate(-85.8)"/><circle cx="-128.6" cy="480.4" r="6.4" fill="#fff"/><circle cx="-128.6" cy="480.6" r="8.5" fill="#fff" fill-opacity=".8"/><circle cx="-131.4" cy="477.2" r="11.7" fill="#fff" fill-opacity=".1"/><circle cx="-155.5" cy="456.3" r="4.1" fill="#fff" fill-opacity=".1"/><circle cx="-151.3" cy="460.1" r="5.1" fill="#fff" fill-opacity=".4"/><circle cx="-122.9" cy="468.5" r="3.4" fill="#fff" fill-opacity=".2"/><path fill="none" stroke="#000" stroke-linejoin="round" stroke-opacity=".2" stroke-width="4.3" d="M-49.5 522h-.8c-9 .5-13.7 10-13 15.8 0 5.7 3.2 10.3 7.5 12.2l-3.3.8c-.2 18-.3 36-1.8 53.1a46.6 46.6 0 0 0-17.9-7.1C-43 577-77.8 538-89 529.9l1.4-5c-16.7.5-30.4 3-43.9 8.5-1.8 9.2-3.4 16.4-4 25.1l-6.8 1c-.7 5-.9 10-.7 15l6.8-1a195 195 0 0 0 9 60.1l20.4-10.8a119.6 119.6 0 0 1-13.7-51.3c5.4-.6 10.2-1 14.4-1.3.3-5 .8-10.6 1.5-15.6-5.4.5-10.7 1.5-16 2 .2-3.5.4-7.6.8-11.2 8.1-3 14.7-4.1 24.7-4.6a153.8 153.8 0 0 0-6.1 45h-5.8l1.6 15 5 1.2 1.9 16.5L-85 616c-1-3.5-1.7-7-2.3-10.4a29 29 0 0 1 19 18.5l5.2-2.6-1.6 8.1 23.2-7.5c-.4-8.2-.5-16.4-.4-24.6 4.2 10 9.2 18.7 17 26.8 21.2-25 26-61.2 23.5-101.6l-19.7 9.4c4.9 21.5 4.7 44.5-4 69.7a85.4 85.4 0 0 1-7.7-49l-7.4 2.2.5-8.8-2.6.6c2.9-3 4.6-7.2 4.5-11.7.2-7.6-4.4-13.4-11.8-13.2zM7 524a3 3 0 0 0-3 3 3 3 0 0 0 3 3 3 3 0 0 0 3-3 3 3 0 0 0-3-3zm-90.6 27.8c6.2 7 19.1 31.5-5 33.9a107 107 0 0 1 5-33.9z"/><path fill="url(#h)" d="M-104.3 136.7c-15.1.9-23.1 16.6-22 26.5.3 9.6 5.5 17.4 12.8 20.6l-5.7 1.3c-.2 30.3-.4 60.6-2.9 89.4a78.4 78.4 0 0 0-30-12.1c60-33.1 1.6-98.7-17.2-112.4l2.2-8.3c-28 .6-51 5-73.7 14-3.2 15.7-5.7 27.7-6.9 42.4l-11.4 1.7c-1.1 8.4-1.4 16.8-1.1 25.1l11.4-1.7c-.2 36.2 5.3 69.7 15.1 101.2l34.4-18.1a201 201 0 0 1-23-86.5c9-1 17-1.6 24.1-2 .5-8.6 1.4-18 2.7-26.4-9.2 1-18.2 2.7-27 3.6.3-6 .7-13 1.3-19 13.6-4.9 24.7-7 41.5-7.7a265 265 0 0 0-10.2 75.8l-9.7-.1 2.6 25.1 8.5 2.2c.9 9.3 2 18.4 3.1 27.6l23-4c-1.7-5.8-3-11.7-3.9-17.5 13.6 5 25.5 13 32 31.1l8.6-4.4c-.8 4.7-1.6 9.2-2.6 13.7l39-12.6a637 637 0 0 1-.8-41.5A141.5 141.5 0 0 0-61.4 309c35.6-42 43.6-102.9 39.5-170.8L-55 153.8a208 208 0 0 1-6.8 117.3c-10.8-20.9-16.5-47.6-13-82.4l-12.4 3.7.9-14.9-4.4 1c4.8-4.9 7.8-12 7.6-19.7.3-13-8-23-21.2-22.1zm-56 50.1c10.4 11.6 32.1 53-8.4 57-.3-20 2.6-39.5 8.3-57z" transform="matrix(.595 0 0 .595 10.6 438.4)"/><path fill="#ff4600" fill-opacity=".4" d="M-50.7 519.7h-.7c-9 .6-13.8 10-13.1 15.8.1 5.5 3 10 7.1 12a14.2 14.2 0 0 1-4-9.8c-.6-5.8 4.1-15.2 13.1-15.7a12 12 0 0 1 6 1 11 11 0 0 0-8.4-3.3zm48.2.8-19.7 9.4c4.8 20.8 4.8 42.9-3.1 67.1.7 1.7-1.7 1-.9 2.6 9-22 12.8-29.9 8.1-67.8l15.8-7.6c0-1.2 0-2.4-.2-3.7zm-86.3 2.2c-16.7.4-30.3 3-43.8 8.4-1.9 9.3-3.4 16.4-4.1 25.1l-6.8 1c-.7 5-.8 10-.7 15l3.1-.5c0-4 .2-8.1.8-12.2l6.7-1c.7-8.7 2.3-15.9 4.1-25.2 12.5-5 25-7.5 40-8.2zm-4.3 18.1-3.9.2a157.8 157.8 0 0 0-5.4 42.6h-5.7l1.6 14.8 3 .8-1.5-13.4h5.8c-.2-13 1.3-28.5 6-45zm36 7-3.2.7c-.1 18-.2 36-1.7 53.2a47.7 47.7 0 0 0-12.9-6c-.6.3-3-.8-3.7-.4 6.4 1 14.1 5 19.7 8.6 1.5-17.1 1.6-35.1 1.8-53.1l3.3-.8c-1.2-.5-2.3-1.3-3.3-2.2zm23.2 2.8-4 1.2c-.1 1.1 3.6-2.7 3.5-1.6l.2 3.7.3-3.3zm-47.7 1.2-.5 1.3c6 9 12.5 26.2-4.5 29.8v2.8c24.1-2.4 11.2-27 5-34zm-24.1.5c-4.3.4-8.6 1.1-12.7 1.7l-.1 2.7 12.4-1.8.4-2.6zm-31.6 18.9c-1 .1 1 2.5 0 2.7 0 20.5 3.3 39.5 9 57.4l3.3-1.3c-5.2-17.7-12.5-38.6-12.3-58.8zM-40 602c0 1.5 0-1.5 0 0 3.6 7.2 8 13.8 14 20l.5-.6c-6.4-7.3-10.7-10.6-14.5-19.4zm-61.4-.8c.4 5 1 10 1.6 14.9l2.9-.5c-.6-4.6-1.1-9-1.5-13.7l-3-.7zM-78 609c3.6 3 6.7 7 8.7 12.8l-.4-.5c-2.7-5.6-4-9.7-8.3-12.3zm13.5 16.6-.4-2.2-.8 4 3.8-1.3c.3-1.6-2.9 1-2.6-.5z"/><path fill-opacity=".1" d="M-2.4 554.4a495.2 495.2 0 0 1-16.6 7c-.3 12.2-2.6 24.9-7.2 38.2-4.7-9-7.7-19.8-8.2-33a145 145 0 0 1-26.2 4.6c-.2 10.3-.6 20.5-1.4 30.5a46.6 46.6 0 0 0-18-7.2c11.4-6.3 15.7-14.5 15.8-23.1-4.4.2-8.3 0-11.5-.3-.1 6.1-3.6 11.3-14 12.3-.1-5 .2-10 .8-14.8a320 320 0 0 0-12.5-4.3 158 158 0 0 0-1 19.3h-5.7l1.6 14.8c1.6.5 3.3 1 5 1.3.5 5.6 1.2 11 1.8 16.5l13.7-2.4c-1-3.5-1.8-7-2.3-10.4a29 29 0 0 1 19 18.5l5.1-2.6-1.5 8.1 23.1-7.5c-.4-8.2-.5-16.4-.4-24.6 4.2 10 9.3 18.8 17 26.8 15.2-17.8 22-41.1 23.7-67.7zm-129.7 4c-4.2 0-8 .6-11.7 1.7-.4 4-.5 8-.4 12l6.9-1c-.2 21.5 3 41.3 8.8 59.9h.7l19.8-10.5a119.6 119.6 0 0 1-13.6-51.3c5.4-.6 10.1-1 14.3-1.3l.4-5.2c-9.9-2.9-18-4.3-25.2-4.2z"/><path fill="#ff0" fill-opacity=".1" d="M-50.7 519.7h-.7c-6.1.4-10.3 4.8-12.1 9.4a8.3 11.8 61.6 0 0 8-1.9 8.3 11.8 61.6 0 0 6.7-7.4 13 13 0 0 0-1.9-.1zm-38 3c-8.5.2-16.2 1-23.4 2.4a8.2 20.6 88.9 0 0 10.7.8 8.2 20.6 88.9 0 0 12.3-2zm77.1 2.2-10.6 5c.6 2.4 1 4.9 1.5 7.3a8.3 11.8 61.6 0 0 2-1 8.3 11.8 61.6 0 0 7.1-11.3zm-109.7 2.3c-3.9 1.1-7.6 2.4-11.3 3.9l-1.7 8.4a8.3 11.8 61.6 0 0 5.8-1.9 8.3 11.8 61.6 0 0 7.2-10.4zm-14.5 21.3c-.4 2.5-.7 5-.9 7.7l-6.8 1-.4 3.7a6 8.6 61.6 0 0 5-1.4 6 8.6 61.6 0 0 4.7-9.3 6 8.6 61.6 0 0-1.6-1.7zm30.1 3.8c-3.8.3-7.6 1-11.3 1.5a6.2 8.8 80.7 0 0 7.5 1.4 6.2 8.8 80.7 0 0 3.6-1.2l.2-1.7zm30 17.9c.2 5.9-2.5 11-11.2 12.8a6 8.6 42.1 0 0 .5.5 6 8.6 42.1 0 0 10.2-2.3 6 8.6 42.1 0 0 1.3-10.4 6 8.6 42.1 0 0-.8-.6zm-26.5 5.4a156 156 0 0 0-.2 8h-5.7l.5 5a6 8.6 61.6 0 0 3.8-1.3 6 8.6 61.6 0 0 4.7-9.4 6 8.6 61.6 0 0-3.1-2.3zm-34.7 10.7c.8 11 2.5 21.6 5 31.9a8.3 25 .6 0 0 .5-7.6 8.3 25 .6 0 0-5.5-24.3z"/><path fill="none" stroke="#000" stroke-linejoin="round" stroke-width="2.9" d="M-51.2 519.2h-.7c-9 .6-13.8 10-13.1 15.8.1 5.7 3.2 10.4 7.6 12.2l-3.4.8c-.1 18-.2 36-1.7 53.2a46.6 46.6 0 0 0-17.9-7.2c35.7-19.7 1-58.7-10.2-66.8l1.4-5c-16.7.4-30.4 3-43.9 8.4-1.9 9.3-3.4 16.4-4 25.2l-6.8 1c-.8 5-1 10-.7 14.9l6.8-1a192 192 0 0 0 9 60.1l20.4-10.7a119.6 119.6 0 0 1-13.7-51.4c5.4-.6 10.2-1 14.4-1.2.2-5.2.8-10.7 1.5-15.7-5.4.5-10.8 1.5-16 2.1l.7-11.3a76 76 0 0 1 24.8-4.5 153 153 0 0 0-6.1 45h-5.8l1.6 14.9 5 1.3c.5 5.5 1.2 11 1.9 16.4l13.6-2.4c-1-3.5-1.7-7-2.3-10.4a29 29 0 0 1 19 18.5l5.1-2.6c-.4 2.8-1 5.5-1.5 8.2l23.2-7.6c-.4-8.1-.5-16.4-.5-24.6 4.3 10 9.3 18.8 17 26.9 21.3-25 26-61.2 23.6-101.6l-19.7 9.3c4.9 21.6 4.7 44.5-4 69.8a85.4 85.4 0 0 1-7.8-49l-7.4 2.1.6-8.8-2.6.6c2.8-3 4.6-7.1 4.5-11.7.1-7.5-4.4-13.4-11.9-13.2zm56.9 2.4a3.4 3.4 0 0 0-3.4 3.4 3.4 3.4 0 0 0 3.4 3.4 3.4 3.4 0 0 0 3.4-3.4 3.4 3.4 0 0 0-3.4-3.4zm-91 27.4c6.3 7 19.2 31.6-5 34 0-12 1.7-23.6 5-34z"/><g transform="matrix(.043 0 0 .043 -37.2 517.2)"><circle cx="1001.7" cy="180.5" r="67.7" fill="#590000"/><g style="line-height:1.25" word-spacing="0"><path fill="#140000" d="M749 191.2q5.8 0 8.3-2.1 2.6-2.2 2.6-7.2t-2.6-7q-2.5-2.2-8.4-2.2h-7.8v18.5zm-8 13v27.3h-18.6v-72.3H751q14.3 0 21 4.8 6.6 4.8 6.6 15.1 0 7.2-3.4 11.8-3.5 4.6-10.5 6.8 3.9.9 6.9 4 3 3 6.1 9.3l10.1 20.5H768l-8.8-18q-2.7-5.4-5.5-7.4-2.7-2-7.2-2z" aria-label="R" font-family="sans-serif" font-size="99.3" font-weight="700" letter-spacing="0" style="-inkscape-font-specification:&quot;sans-serif Bold&quot;" transform="translate(157.6 -43) scale(1.123)"/></g></g><path fill="url(#i)" d="m-140.2 445.3-82.9-11.7-14.1 82.5 11.7-82.9-82.5-14.1 82.9 11.7 14.1-82.5-11.7 82.9z" transform="rotate(34.1 -531.5 345.8) scale(.537)"/></g><g style="line-height:1.25;-inkscape-font-specification:&quot;Spicy Rice&quot;" word-spacing="0"><path fill="#fff" d="m191.4 54.8-.6 3.9-.1 3.7v2.3q-.6-1.1-1.6-1.7-1-.6-2-.6-.7 0-1.3.3-.6.3-1.1.9-.5.5-.8 1.3-.3.9-.3 2l7-.3-.4 2.6-.1 2.7v3.2l-3.2-.4q-1.6-.2-3.4-.2v8.2l.1 8.7q.3 4.3 1 8.4-3-.7-6.4-.7-1.8 0-3.5.2l-3.3.5q.6-2.8 1-6l.5-6.4.3-6.5.1-6-2 .1-1.9.2.2-2.3.1-2.4v-2q0-1.1-.3-2.3l4.2.3q0-3 .8-5.3.7-2.4 2.2-4.1 1.4-1.8 3.6-2.7 2.3-1 5.2-1l1.6.1q.8.1 1.4.4l1.4.4 1.6.5zM206.8 74q-.9 0-1.6.4-.7.5-1.2 1.4l-1 2q-.4 1.3-.6 2.8l.1 4.7q.1 2.5.4 4.8.2 2.4.6 4.6.4 2.3 1 4.3h-1l-1.2-.1h-1.7l-4 .1q-2.2.1-5 .6.4-1.6.6-3.8l.5-5 .2-5.4.1-5.7v-4.1l-.2-3.8q0-1.7-.3-3.2l-.3-2.6q2.2.4 4 .5l3.4.2h1.6l1.3-.2 1-.1-.5 3q1.5-1.7 3.2-2.5 1.7-.9 3.2-.9 2.5 0 4.2 1 1.7.8 2.8 2.3 1 1.4 1.5 3.3t.5 3.8q0 1.8-.5 3.6-.6 1.8-1.6 3.2-1 1.4-2.4 2.3-1.5.8-3.4.8-1.6 0-2.8-.5-1.1-.6-1.9-1.5-.7-.9-1-2-.4-1-.4-2 0-1.2.3-2.2.3-1 1-2 .1.7.4 1l.6.4.7.2q1 0 1.6-.4.5-.5.5-1.1l-.1-.7-.4-.8-.8-.5q-.6-.3-1.4-.3zm26.1 25h-1.1l-1.3-.1h-1.8l-4.1.1q-2.4.1-5.1.6.5-1 .9-2.7l.5-3.4q.3-1.8.4-3.7l.2-3.4v-4q0-3.6-.2-6.7 0-1.4-.2-2.7l-.3-2.6q-.1-1.2-.4-2.2l-.4-1.5q2.2.4 4.1.5l3.5.2h1.8l1.3-.2h1.2q-.5 2.4-.8 6-.3 3.5-.3 7.5v4.6l.4 4.8.7 4.6q.4 2.2 1 4.3zM220 59.3q0-1.3.5-2.4.5-1.1 1.3-2 .9-.8 2-1.3 1.2-.5 2.5-.5 1.2 0 2.3.5 1.2.5 2 1.4.9.8 1.3 2 .5 1 .5 2.3 0 1.3-.5 2.4-.4 1.2-1.3 2-.8.9-2 1.4-1 .4-2.3.4-1.3 0-2.5-.4-1.1-.5-2-1.4-.8-.8-1.3-2-.5-1.1-.5-2.4zm42 7.7q-1.4 4-2.4 8l-1.5 8-1 8-1 8h-2.7l-3.2-.1h-2.8l-2.7.1q-1.3 0-2.5.2-1.2 0-2.1.2-.6-4-1-8.1l-1.3-8q-.7-4-1.8-8-1-4-2.7-8 2.7.3 5.5.3 3.8 0 7.6-.7l-.2 3v3q0 4 .4 8 .5 3.9 1.5 7.6.9-3.6 1.3-7.1.5-3.6.5-7.2l-.1-3.6-.4-3.7q3 .4 6.2.4 3.1 0 6.4-.4zm23.7 8.4-.3 2.5-.1 2.4v2.4l.4 2.4q-1-.5-2.4-.9l-2.5-.5-2.6-.2-2.5-.1q-3 0-6.1.3-3.1.3-6 1l.2-.8.1-1 .1-1v-3.7l-.4-2.8q1.1.5 2.6.8l3 .5 3 .3h5.3l3-.3 2.8-.5q1.4-.3 2.4-.8zm2.8 24.3q0-3.9.8-6.7.7-2.8 2-4.8 1.2-2 2.8-3.5 1.6-1.5 3.2-2.6l3.3-2.2q1.5-1 2.8-2.2 1.2-1.2 2-2.7.7-1.5.7-3.7l-.2-1q0-.6-.5-1.1-.3-.6-1-.9-.5-.3-1.4-.3-.8 0-1.4.2l-.9.7-.6 1-.1 1 .1.8.5.7.7.5.8.2 1-.2q-.5.9-1.3 1.6-.8.7-1.8 1.2t-2 .7q-1.2.3-2.4.3-1.5 0-2.8-.5-1.3-.4-2.3-1.2-1-.9-1.5-2.1-.6-1.3-.6-3 0-2.3.9-4.5.9-2.1 2.7-3.8 1.7-1.7 4.4-2.7 2.7-1 6.2-1 4.1 0 7.1 1.1 3 1.2 5 3.2t3 4.9q1 2.8 1 6 0 2.3-.6 4-.6 1.7-1.6 3-1 1.2-2.3 2.1-1.3 1-2.8 1.7l-3 1.5-3 1.5q-1.5.8-2.8 1.8-1.3 1-2.2 2.5 5.6-.4 10-2 4.3-1.7 7.3-4.4l-.3 3-.1 2.7.2 4.6.8 4.6q-3.5-.5-7.2-.8-3.7-.2-7.5-.2-4 0-7.7.2-3.8.3-7.4.8zM353.6 80q0 2.4-.4 4.9-.4 2.4-1.3 4.7-.8 2.2-2 4.2-1.3 2-3.1 3.4t-4 2.3q-2.3.8-5.1.8t-5-.7q-2.3-.8-4.1-2.1-1.8-1.4-3-3.3-1.3-1.9-2.2-4.1-.8-2.3-1.2-4.8-.4-2.6-.4-5.3 0-5 1.2-9 1.3-4 3.4-7 2.2-2.8 5-4.4 3-1.6 6.3-1.6 3.7 0 6.6 1.4 3 1.5 5 4.3t3.2 6.9q1 4 1 9.4zm-11.3-1.3q0-2.4-.3-4.3-.4-1.8-1-3.2-.6-1.3-1.5-2-1-.7-2-.7t-2 1q-.8.8-1.5 2.2-.6 1.4-1 3.3-.3 1.8-.3 3.7 0 2.2.3 4 .3 1.8.9 3.1.6 1.3 1.4 2 1 .7 2.2.7 1.2 0 2.1-.7 1-.7 1.5-2 .7-1.2 1-3 .2-1.8.2-4zM377.4 99l-1.3-.2h-3.5l-5.3.1q-3 .2-6.4.8.6-1.3 1-3.2l.8-4 .4-4.5.3-4.2V74l-.1-2.7-3-.5-2.8-.4-2.8-.3q2-1.9 3.1-3.5 1.3-1.7 2-3.2.7-1.4 1-2.6l.7-2.2q2.8.5 5.1.7l4.3.1h2.2l1.7-.1 1.4-.2-.5 3.5-.5 4-.3 4.5V82l.5 5.9q.3 3 .8 5.7.5 2.9 1.2 5.5zm30.3-40-2.5 6.2-2 6q-.9 3-1.6 6.2-.8 3.1-1.4 6.5-.6 3.4-1 7.1-.6 3.8-1 8l-1.6-.2h-6.1l-2.4.1-2.7.3-3.2.5q1.3-2.1 2.5-4.7l2.3-5.5 2-5.8 1.6-5.5q.7-2.7 1.1-5l.7-3.8-3.3.2q-1.6 0-3.3.4-1.7.3-3.2.8-1.6.6-2.9 1.4l.1-.8.2-1.2v-2.7l.1-1.2v-.8l-.1-3.4-.3-3.4q3 .7 6.6 1l7.2.4q3.7 0 7.3-.2 3.7-.3 7-.9zm-.2 35.7q0-1.2.4-2.3.5-1 1.3-1.9.8-.8 1.8-1.2 1.1-.5 2.3-.5 1.2 0 2.3.5 1 .4 1.9 1.2.8.8 1.2 2 .5 1 .5 2.2 0 1.2-.5 2.3-.4 1-1.2 1.8-.8.8-2 1.3-1 .4-2.2.4-1.2 0-2.3-.4-1-.5-1.8-1.3t-1.3-1.8q-.4-1.1-.4-2.3zm38-19.1q0 1.1-.4 2.3-.4 1.2-1.2 2.1-.7 1-1.8 1.5-1.1.6-2.5.6-1.2 0-2-.4-.9-.4-1.5-1-.5-.7-.8-1.6l-.2-1.8q0-2 1-3.4 0 .5.3.8l.5.3.6.1q.8 0 1-.3l.3-.9q0-.4-.4-.9-.4-.4-1.3-.4h-.7l-1 .4q-.6.3-1.1.8-.6.6-1.1 1.5-.5 1-.8 2.4-.3 1.4-.3 3.5 0 2 .6 3.3.6 1.3 1.4 2 1 .7 1.9 1l1.6.2 1.4-.2q1-.2 1.8-.7.9-.6 1.6-1.6.7-1 1-2.5.7 1 1.2 2.6.4 1.6.4 3.2 0 2.3-.9 4.5-.8 2.1-2.3 3.8-1.6 1.7-3.7 2.7-2.2 1-4.8 1-2 0-3.6-.6-1.7-.6-3-1.7-1.4-1.1-2.4-2.6-1-1.6-1.8-3.3-.7-1.8-1-3.7-.4-2-.4-4t.4-4.3q.5-2.3 1.4-4.4.9-2 2.1-3.9 1.3-1.8 3-3.1 1.5-1.4 3.5-2.2 2-.8 4.1-.8 2 0 3.5.5t2.6 1.2q1.1.8 1.8 1.8.8 1 1.2 2.1.4 1 .6 2.1l.2 2zM474 83q0 1.5-.3 3.5-.2 1.9-.8 3.8-.6 2-1.6 3.8-1 1.9-2.5 3.3t-3.5 2.3q-2 .8-4.8.8-2.7 0-4.8-.8-2-.8-3.5-2.1-1.4-1.4-2.3-3.1-1-1.8-1.5-3.7-.6-2-.8-4l-.2-3.7q0-3.2.8-6.2.9-3 2.5-5.3 1.8-2.4 4.3-3.9 2.6-1.4 6-1.4 2.4 0 4.3.7 1.8.7 3.3 2 1.4 1.2 2.4 2.8 1 1.6 1.7 3.5.7 1.8 1 3.8.3 2 .3 3.8zm-9.7.8v-1.6l-.2-2-.4-2.1q-.2-1-.6-1.9-.4-.8-1-1.3-.5-.6-1.3-.6t-1.3.5q-.6.5-1 1.3T458 78l-.5 2-.2 2v1.5l.1 2.2q.1 1.3.5 2.5t1 2q.8.9 1.9.9 1 0 1.7-.8.8-.8 1.2-1.9.4-1.1.6-2.4l.1-2.2zm53.3 15.9-1.8-.2h-4.5q-1.3 0-2.4.2l-2.3.3q-1.1 0-2 .2.4-1.4.7-3.5l.5-4.5q.2-2.5.2-5.2l.2-5.6v-1l-.1-1.6-.2-1.6q-.1-.8-.4-1.5-.2-.7-.6-1-.3-.5-.8-.5-.6 0-1.1.7-.5.7-1 1.9l.1 3.7v4.4l.1 4.5v4l.1 3 .1 1-2.3-.3h-2l-3 .1-4 .7.7-5.4.5-5.3.2-5.8v-2.6l-.2-1.6-.4-1.5q-.2-.7-.6-1-.4-.5-.9-.5-.9 0-1.5.5-.5.5-.8 1.4-.4.9-.5 2l-.1 2.4v4.7l.4 4.8.7 4.7q.4 2.3 1 4.3h-1.2l-1.3-.1h-1.7l-4.1.1q-2.4.1-5.2.6.4-1.6.6-3.8.3-2.3.4-5l.3-5.4.1-5.7v-4.1l-.2-3.8-.3-3.2q-.1-1.5-.4-2.6 2.3.4 4.2.5l3.5.2h1.8l1.3-.2 1.2-.1-.3 1.5-.3 1.8q1.6-2 3.4-3 1.7-1 3.5-1 2.3 0 3.8 1.1 1.6 1.2 2.4 3.8 1.6-2.5 3.5-3.7 2-1.3 3.9-1.3 2 0 3.5.9 1.6.8 2.7 2.5 1 1.8 1.6 4.5.5 2.7.5 6.5v5.5l.1 5.5.3 4.9q.1 2.3.4 3.8z" aria-label="friv-2017.com" font-family="Spicy Rice" font-size="56.9" font-weight="400" letter-spacing="0" style="-inkscape-font-specification:&quot;Spicy Rice&quot;"/></g></svg>