<svg xmlns="http://www.w3.org/2000/svg" xmlns:xlink="http://www.w3.org/1999/xlink" width="2300" height="2300" viewBox="0 0 608.5 608.5"><defs/><defs><linearGradient id="a"><stop offset="0" stop-color="#2c2c63"/><stop offset="1" stop-opacity="0"/></linearGradient><linearGradient id="b" x1="944" x2="943.5" y1="149.5" y2=".3" gradientTransform="matrix(1 0 0 1.43816 -635 -79.9)" gradientUnits="userSpaceOnUse" xlink:href="#a"/></defs><g transform="translate(0 79.4)"><path fill="url(#b)" d="M0-79.9h608.5v215.4H0z"/><path fill="#557" d="M0 328.7h608.5v200.5H0z"/><path fill-opacity=".1" d="M0 423.3l75.1-9.5 51.4-41.3 353 4.3 67.1 43.4 62 .5v-98.4L0 337.6z"/><path fill="#565b7e" d="M0 105.8v297h66.1l53-45.6H330.7V344l-13.2-26.5V132.3H105.8L53 105.8z" paint-order="fill markers stroke"/><path fill="#3b3e54" d="M211.7 132.3v91.5H106.9v-90.5h-1v90.5H0v1.1h211.7v92.6L198.4 344v13.2h1.1V344l13.2-26.5v-92.6h104.8v-1H212.7v-91.6z"/><path fill="#8c90ad" d="M0 105.8v1h52.4v117h1V107.2l52.4 26.1h104.8v90.5h1v-90.5h105.9v-1H105.8L53 105.8zM0 224.9v1h52.4v118l13 39.2H0v1h65.6v18.7h.5l.6-.5v-18.1l52.4-39.7h78.3v12.7h1V344l13.3-26.5v-92.6h-1zm53.4 1h157.2v91.6l-13 26h-78.8L66.5 383l-13-39.1z"/><path fill="#8c90ad" d="M199.7 343.5l-.2.5v.5h131.2v-.5l-.2-.5h-1zM212.7 224.9h104.8v1.1H212.7z"/><path fill="#3b3e54" d="M119.1 344.5h1.1v12.7h-1.1zM118.8 343.5l-13-26V226h1v91.5l13.2 26z"/><path fill="#3b3e54" d="M119 357.2l-52.9 45.3H0v1.9h66.1l53-45.6H330.7v-1.6H198.4z" paint-order="fill markers stroke"/><g><path fill="#565b7e" d="M608.5 105.8v297h-66.1l-53-45.6H277.9V344l13.2-26.5V132.3h211.7l53-26.5z" paint-order="fill markers stroke"/><path fill="#3b3e54" d="M396.9 132.3v91.5h104.7v-90.5h1.1v90.5h105.8v1.1H397v92.6L410 344v13.2h-1V344l-13.3-26.5v-92.6H291v-1h104.8v-91.6z"/><path fill="#8c90ad" d="M608.5 105.8v1h-52.3v117H555V107.2l-52.4 26.1H398v90.5h-1v-90.5H291v-1h211.7l53-26.5zM608.5 224.9v1h-52.3v118L543 383.2h65.4v1H543v18.7h-.5l-.5-.5v-18.1l-52.4-39.7h-78.3v12.7H410V344l-13.2-26.5v-92.6h1zm-53.4 1H397.9v91.6l13 26h78.8L542 383l13.1-39.1z"/><path fill="#8c90ad" d="M408.8 343.5l.2.5v.5H277.8v-.5l.3-.5h1zM395.8 224.9H291v1.1h104.8z"/><path fill="#3b3e54" d="M489.4 344.5h-1v12.7h1zM489.7 343.5l13-26V226h-1v91.5l-13.2 26z"/><path fill="#3b3e54" d="M489.5 357.2l52.9 45.3h66.1v1.9h-66.1l-53-45.6H277.9v-1.6h132.3z" paint-order="fill markers stroke"/></g><path fill="#fff" fill-opacity=".1" d="M0 383.1h66.4l52.4-39.6h371L542 383h66.5v-39h-52.9l-53.5-26.7H106.4L53 344H0M152 132.3a166.6 111.8 0 00-14.3 45.1 166.6 111.8 0 00166.6 111.8 166.6 111.8 0 00166.5-111.8 166.6 111.8 0 00-14.3-45.1z"/><path fill-opacity=".1" d="M608.5 105.8h-52.9l-23.8 11.8 23.7 168.5 30.8 8.2 22.2 42.2zM0 105.8h53l33 16.6-6.4 51.9-26.2 41.9L0 295z"/><ellipse cx="304.3" cy="447.1" fill="#fff" fill-opacity=".1" rx="182" ry="47.6"/></g></svg>